<svg id="Layer_1" data-name="Layer 1" xmlns="http://www.w3.org/2000/svg" width="284" height="81" viewBox="0 0 284 81">
  <defs>
    <style>
      .cls-1 {
        fill: #0d0d0d;
      }
    </style>
  </defs>
  <g>
    <path class="cls-1" d="M15.33,65.28q-2.86-3.18-2.87-9.13v-2.8h7.28v3.36q0,4.76,4,4.76a3.76,3.76,0,0,0,3-1.16,5.63,5.63,0,0,0,1-3.74,10.36,10.36,0,0,0-1.4-5.43,25.79,25.79,0,0,0-5.18-5.63,31,31,0,0,1-6.65-7.6,15.45,15.45,0,0,1-1.89-7.66q0-5.8,2.94-9t8.54-3.18q5.54,0,8.37,3.18c1.89,2.13,2.83,5.17,2.83,9.14v2H28V29.9a5.61,5.61,0,0,0-1-3.68,3.55,3.55,0,0,0-2.87-1.15c-2.56,0-3.85,1.56-3.85,4.69a9.24,9.24,0,0,0,1.44,5A27.1,27.1,0,0,0,27,40.33,28.7,28.7,0,0,1,33.6,48a16.87,16.87,0,0,1,1.82,8q0,6-3,9.24T23.8,68.47Q18.2,68.47,15.33,65.28Z"/>
    <path class="cls-1" d="M39.83,18.77h11l4.9,35.07h.14l4.9-35.07h11v49H64.47V30.67h-.14l-5.6,37.1H52.29l-5.6-37.1h-.14v37.1H39.83Z"/>
    <path class="cls-1" d="M77.49,18.77h21v7H85.19v13H95.76v7H85.19V60.77h13.3v7h-21Z"/>
    <path class="cls-1" d="M102.9,18.77h7.7v42h12.67v7H102.9Z"/>
    <path class="cls-1" d="M127,18.77h7.7v42h12.67v7H127Z"/>
    <path class="cls-1" d="M153.16,65.28q-2.94-3.18-2.94-9.13V30.39q0-6,2.94-9.14t8.54-3.18q5.6,0,8.54,3.18t2.94,9.14v4.2H165.9V29.9q0-4.83-4-4.83t-4,4.83V56.71q0,4.76,4,4.76t4-4.76V47.12h-3.85v-7h11.13v16q0,6-2.94,9.13t-8.54,3.19Q156.11,68.47,153.16,65.28Z"/>
    <path class="cls-1" d="M180.6,65.25q-3-3.22-3-9.1V30.39q0-5.88,3-9.1t8.68-3.22q5.67,0,8.68,3.22t3,9.1V56.15q0,5.88-3,9.1t-8.68,3.22Q183.61,68.47,180.6,65.25Zm12.67-8.61V29.9q0-4.83-4-4.83t-4,4.83V56.64q0,4.83,4,4.83T193.27,56.64Z"/>
    <path class="cls-1" d="M208.6,65.25q-3-3.22-3-9.1V30.39q0-5.88,3-9.1t8.68-3.22q5.67,0,8.68,3.22t3,9.1V56.15q0,5.88-3,9.1t-8.68,3.22Q211.61,68.47,208.6,65.25Zm12.67-8.61V29.9q0-4.83-4-4.83t-4,4.83V56.64q0,4.83,4,4.83T221.27,56.64Z"/>
    <path class="cls-1" d="M234.15,18.77h11.76q5.75,0,8.61,3.08t2.87,9V55.66q0,6-2.87,9t-8.61,3.08H234.15Zm11.62,42a3.69,3.69,0,0,0,2.9-1.12,5.33,5.33,0,0,0,1-3.64V30.53a5.33,5.33,0,0,0-1-3.64,3.69,3.69,0,0,0-2.9-1.12h-3.92v35Z"/>
    <path class="cls-1" d="M264.11,65.28q-2.88-3.18-2.87-9.13v-2.8h7.28v3.36q0,4.76,4,4.76a3.74,3.74,0,0,0,3-1.16,5.58,5.58,0,0,0,1-3.74,10.45,10.45,0,0,0-1.4-5.43,26,26,0,0,0-5.18-5.63,30.76,30.76,0,0,1-6.65-7.6,15.45,15.45,0,0,1-1.89-7.66q0-5.8,2.94-9c2-2.12,4.8-3.18,8.54-3.18s6.47,1.06,8.36,3.18,2.84,5.17,2.84,9.14v2h-7.28V29.9a5.66,5.66,0,0,0-1-3.68,3.56,3.56,0,0,0-2.87-1.15q-3.85,0-3.85,4.69a9.31,9.31,0,0,0,1.43,5,27.49,27.49,0,0,0,5.22,5.6A28.89,28.89,0,0,1,282.38,48a17,17,0,0,1,1.82,8q0,6-3,9.24t-8.64,3.22Q267,68.47,264.11,65.28Z"/>
  </g>
</svg>
